<svg xmlns="http://www.w3.org/2000/svg"><symbol id="icon-cart" viewBox="0 0 720 720"><circle cx="278.8" cy="508.3" r="33.4"/><circle cx="459.5" cy="508.3" r="33.4"/><path d="M254 464.6h228.5a9.7 9.7 0 1 0 0-19.4H262.2l-39.1-237.1a9.7 9.7 0 1 0-19.1 3.2l40.4 245.2a9.7 9.7 0 0 0 9.6 8.1z"/><path d="M166 219.4h47.5a9.7 9.7 0 0 0 0-19.4H166a9.7 9.7 0 1 0 0 19.4zm61.1 33.8h268.8a29.2 29.2 0 0 1 29.1 29.2v.8l-19.4 99.5c-2.3 16.2-14.1 27.6-28.7 27.7l-213.8 2.8H253c-15.8 0-19-12.6-19.4-28.3l-16.2-101.8v-.7c0-16.1-6.4-29.2 9.7-29.2z"/></symbol><symbol id="icon-down" viewBox="0 0 720 720"><path d="M360 508.5a50.2 50.2 0 0 1-35.4-14.6l-197-197a50.1 50.1 0 0 1 70.8-70.8L360 387.8l161.6-161.7a50.1 50.1 0 0 1 70.8 70.8l-197 197a50.2 50.2 0 0 1-35.4 14.6z"/></symbol><symbol id="icon-facebook" viewBox="0 0 720 720"><path d="M360 116.3c-134.6 0-243.7 109.1-243.7 243.7S225.4 603.7 360 603.7 603.7 494.6 603.7 360 494.6 116.3 360 116.3zm24.2 201.9h54.4l-6.5 55.7h-48.2V515h-57.5V373.8h-47.2v-56.6h47.2c0-85.8 4.5-121 114.5-110.4v50.4c-65.5-5.6-56.7 11.4-56.7 61z"/></symbol><symbol id="icon-heart" viewBox="0 0 720 720"><path d="M460.3 184.2a100.4 100.4 0 0 0-100.4 100.4 100.4 100.4 0 1 0-200.7 0c.2 98 53.4 184.7 200.8 251.2 147.3-66.5 200.6-153.2 200.8-251.2a100.5 100.5 0 0 0-100.5-100.4z"/></symbol><symbol id="icon-insta" viewBox="0 0 720 720"><path d="M398.7 360a38.7 38.7 0 1 1-38.7-38.7 38.7 38.7 0 0 1 38.7 38.7zm48.5-41.2v82.5a46.1 46.1 0 0 1-45.9 45.9h-82.5a46.1 46.1 0 0 1-45.9-45.9v-82.5a46.1 46.1 0 0 1 45.9-45.9h82.5a46 46 0 0 1 45.9 45.9zM416.5 360a56.5 56.5 0 1 0-56.5 56.5 56.5 56.5 0 0 0 56.5-56.5zm7.9-55.9a8.6 8.6 0 1 0-8.6 8.6 8.6 8.6 0 0 0 8.6-8.6zM603.7 360c0 134.6-109.1 243.7-243.7 243.7S116.3 494.6 116.3 360 225.4 116.3 360 116.3 603.7 225.4 603.7 360zm-138.8-41.2a63.8 63.8 0 0 0-63.7-63.7h-82.5a63.7 63.7 0 0 0-63.6 63.7v82.5a63.6 63.6 0 0 0 63.6 63.6h82.5a63.7 63.7 0 0 0 63.6-63.7v-82.4z"/></symbol><symbol id="icon-dna" viewBox="0 0 720 720"><path d="M329.5 171l-10.1-10-17.9 17.9-11.1 11-101.2 101.2-32.5 32.5-.6 4.8c-5.3 43.8 4.9 77.9 31.4 104.4 19.6 19.6 44.5 23.5 72.9 19.4-.7 31.4 7.7 61 32.8 86.1 34.7 34.7 88.7 19.1 136.6 1.7l3-1.1 2.4-2.4 120-120 10-10-10-10.1c-58.3-58.3-140.9-26.7-213.7 1.1-16 6.1-31.8 12.2-46.8 17 6.1-25.6 16.3-52.7 26.5-79.5 24.1-64.4 47.2-125 8.3-164zM184 336.7l133.3-133.4c3.7 8.8 4.6 19.2 3.6 30.9L185 370a124.9 124.9 0 0 1-1-33.3zm79.3 85.7a160.4 160.4 0 0 1-17.1 2.2l21.4-21.4c-1.6 6.5-3.1 12.9-4.3 19.2zm199.8-29.8l-134.9 135a38.3 38.3 0 0 1-14.9-9.5l-4.3-4.7 114-113.9a212.1 212.1 0 0 1 40.1-6.9zm-46.4 121.5c-18.3 6.7-34.7 11.7-48.8 14.4l132.2-132.3a76 76 0 0 1 23.3 11.2zM351.2 424l10.6-3.9-67.9 67.8a98.5 98.5 0 0 1-5.2-30.8l16.2-16.2c15.2-4.8 30.7-10.8 46.3-16.9zm-64.3-80.5L213.4 417a29.7 29.7 0 0 1-5.6-4.6 79.7 79.7 0 0 1-10.9-13.5l110.5-110.5c-4.1 11.8-8.8 24-13.5 36.2-2.3 6.1-4.6 12.6-7 18.9z"/></symbol><symbol id="icon-left" viewBox="0 0 720 720"><path d="M458.5 607a50.2 50.2 0 0 1-35.4-14.6l-197-197a50.2 50.2 0 0 1 0-70.8l197-197a50.1 50.1 0 0 1 70.8 70.8L332.2 360l161.7 161.6a50 50 0 0 1-35.4 85.4z"/></symbol><symbol id="icon-man" viewBox="0 0 720 720"><path d="M217.4 434.2h285.3v220.2H217.4z"/><circle cx="360" cy="432.7" r="142.8"/><circle cx="360" cy="252.8" r="131.8" fill="#fff"/><path d="M360 399.6c-80.9 0-146.8-65.9-146.8-146.8S279.1 106 360 106s146.8 65.9 146.8 146.8S440.9 399.6 360 399.6zm0-263.6a116.8 116.8 0 1 0 116.8 116.8A116.9 116.9 0 0 0 360 136z"/><circle cx="310.5" cy="218.6" r="30"/><circle cx="409.5" cy="220.1" r="30"/><path d="M360 320.2a56.2 56.2 0 0 1-56.2-56.2h30a26.2 26.2 0 0 0 52.4 0h30a56.2 56.2 0 0 1-56.2 56.2z"/></symbol><symbol id="icon-paw" viewBox="0 0 720 720"><ellipse cx="239.9" cy="328" rx="39.4" ry="46.2" transform="rotate(-45 239.878 328.04)"/><ellipse cx="304.9" cy="240.3" rx="46.2" ry="59.3" transform="rotate(-20.1 304.574 240.21)"/><ellipse cx="415.1" cy="240.3" rx="59.3" ry="46.2" transform="rotate(-77 415.332 240.26)"/><ellipse cx="480.1" cy="328" rx="46.2" ry="39.4" transform="rotate(-45 480.166 328.009)"/><path d="M311.4 345.1l-63.1 109.2c-21.6 37.4 5.4 84.1 48.6 84.1h126c43.2 0 70.2-46.7 48.6-84.1l-63.1-109.2c-21.4-37.4-75.4-37.4-97 0z"/></symbol><symbol id="icon-twitter" viewBox="0 0 720 720"><path d="M360 116.3c-134.6 0-243.7 109.1-243.7 243.7S225.4 603.7 360 603.7 603.7 494.6 603.7 360 494.6 116.3 360 116.3zm91.6 195.6a8.7 8.7 0 0 0-3.3 7.2c-1.4 50.5-22.6 89.9-66.6 115.7-21.8 12.8-45.8 16.9-70.9 15.5a126.9 126.9 0 0 1-58.9-18.1l-2.7-1.8c25 1.9 46.7-4 66.8-19.1-10.3-.8-18.9-3.6-26.5-9.3a46.5 46.5 0 0 1-16.1-22.4h19.1c-24.8-11.9-36.4-26.8-35-45.2l18.8 5.2.6-.8c-19.7-16.7-24.4-36.6-13.5-60.9 25 29.2 56 45.1 94 47.9a21.6 21.6 0 0 0 0-3.6c-2.7-19.4 6.2-37.7 23.1-46.9a45.2 45.2 0 0 1 52.3 6c2.5 2.2 4.6 2.8 7.6 1.8l23.8-8.6c-3.2 9.6-9.7 17-18.1 23l.5 1 23.3-6.3.8.8c-6.2 6.2-12.4 12.8-19.1 18.9z"/></symbol><symbol id="icon-up" viewBox="0 0 720 720"><path d="M557 508.5a50.2 50.2 0 0 1-35.4-14.6L360 332.2 198.4 493.9a50.1 50.1 0 0 1-70.8-70.8l197-197a50.2 50.2 0 0 1 70.8 0l197 197a50 50 0 0 1-35.4 85.4z"/></symbol><symbol id="icon-right" viewBox="0 0 720 720"><path d="M261.5 607a50 50 0 0 1-35.4-85.4L387.8 360 226.1 198.4a50.1 50.1 0 0 1 70.8-70.8l197 197a50.2 50.2 0 0 1 0 70.8l-197 197a50.2 50.2 0 0 1-35.4 14.6z"/></symbol><symbol id="icon-cart" viewBox="0 0 720 720"><circle cx="278.76" cy="508.33" r="33.42"/><circle cx="459.48" cy="508.33" r="33.42"/><path d="M254 464.65h228.49a9.71 9.71 0 0 0 0-19.41H262.2l-39.09-237.13a9.7 9.7 0 1 0-19.11 3.15l40.43 245.26a9.7 9.7 0 0 0 9.57 8.13z"/><path d="M166 219.39h47.57a9.71 9.71 0 0 0 0-19.41H166a9.71 9.71 0 1 0 0 19.41zm61.08 33.86h268.81A29.14 29.14 0 0 1 525 282.36v.8l-19.37 99.59c-2.29 16.19-14.08 27.51-28.75 27.63l-213.75 2.78H253c-15.77 0-18.93-12.6-19.38-28.27l-16.21-101.77v-.76c0-16.05-6.41-29.11 9.67-29.11z"/></symbol><symbol id="icon-heart" viewBox="0 0 720 720"><path d="M460.3 184.2a100.4 100.4 0 0 0-100.4 100.4 100.35 100.35 0 1 0-200.7 0c.2 98 53.4 184.7 200.8 251.2 147.3-66.5 200.6-153.2 200.8-251.2a100.48 100.48 0 0 0-100.5-100.4z"/></symbol><symbol id="icon-facebook" viewBox="0 0 720 720"><path d="M360 116.3c-134.6 0-243.7 109.1-243.7 243.7S225.4 603.7 360 603.7 603.7 494.6 603.7 360 494.6 116.3 360 116.3zm24.2 201.9h54.4l-6.5 55.7h-48.2V515h-57.5V373.8h-47.2v-56.6h47.2c0-85.8 4.5-121 114.5-110.4v50.4c-65.5-5.6-56.7 11.4-56.7 61z"/></symbol><symbol id="icon-insta" viewBox="0 0 720 720"><path d="M398.7 360a38.7 38.7 0 1 1-38.7-38.7 38.67 38.67 0 0 1 38.7 38.7zm48.5-41.2v82.5a46.09 46.09 0 0 1-45.9 45.9h-82.5a46.09 46.09 0 0 1-45.9-45.9v-82.5a46.09 46.09 0 0 1 45.9-45.9h82.5a46 46 0 0 1 45.9 45.9zM416.5 360a56.5 56.5 0 1 0-56.5 56.5 56.51 56.51 0 0 0 56.5-56.5zm7.9-55.9a8.6 8.6 0 1 0-8.6 8.6 8.6 8.6 0 0 0 8.6-8.6zM603.7 360c0 134.6-109.1 243.7-243.7 243.7S116.3 494.6 116.3 360 225.4 116.3 360 116.3 603.7 225.4 603.7 360zm-138.8-41.2a63.8 63.8 0 0 0-63.7-63.7h-82.5a63.65 63.65 0 0 0-63.6 63.7v82.5a63.63 63.63 0 0 0 63.6 63.6h82.5a63.65 63.65 0 0 0 63.6-63.7v-82.4z"/></symbol><symbol id="icon-dna" viewBox="0 0 720 720"><path d="M329.47 171.05l-10-10.05-17.95 17.94c-2.87 2.87-6.46 6.46-11.12 10.95l-101.2 101.2-32.48 32.47-.54 4.85c-5.38 43.78 4.85 77.87 31.4 104.43 19.56 19.55 44.5 23.5 72.85 19.37-.71 31.4 7.72 61 32.84 86.13 34.63 34.63 88.64 19 136.54 1.62l3.05-1.08 2.34-2.33 120-120 10-10.05-10-10c-58.32-58.31-140.86-26.73-213.7 1.08-16 6.1-31.76 12.2-46.84 17 6.1-25.65 16.33-52.75 26.56-79.48 24-64.42 47.19-125.07 8.25-164zM184 336.66l133.27-133.31c3.77 8.79 4.67 19.19 3.59 30.86L185 370a126.56 126.56 0 0 1-1-33.34zm79.3 85.77a152 152 0 0 1-17 2.15l21.35-21.35c-1.65 6.46-3.13 12.92-4.39 19.2zm199.89-29.79L328.22 527.57a37.76 37.76 0 0 1-14.9-9.51c-1.43-1.43-2.87-3-4.3-4.66L423 399.46c13.81-3.59 27.27-6.1 40.19-6.82zm-46.51 121.48c-18.31 6.64-34.63 11.66-48.81 14.35l132.24-132.24a77.4 77.4 0 0 1 23.33 11.13zM351.18 424c3.59-1.43 7-2.69 10.59-3.94L294 487.92a97.7 97.7 0 0 1-5.21-30.86l16.15-16.15c15.25-4.84 30.68-10.77 46.29-16.87zM287 343.48l-73.57 73.57a33.78 33.78 0 0 1-5.56-4.67 83.42 83.42 0 0 1-10.94-13.46L307.4 288.39c-4.12 11.85-8.79 24.05-13.45 36.25-2.34 6.1-4.67 12.56-6.95 18.84z"/></symbol><symbol id="icon-twitter" viewBox="0 0 720 720"><path d="M360 116.3c-134.6 0-243.7 109.1-243.7 243.7S225.4 603.7 360 603.7 603.7 494.6 603.7 360 494.6 116.3 360 116.3zm91.6 195.6a8.68 8.68 0 0 0-3.3 7.2c-1.4 50.5-22.6 89.9-66.6 115.7-21.8 12.8-45.8 16.9-70.9 15.5a126.91 126.91 0 0 1-58.9-18.1 28.91 28.91 0 0 1-2.7-1.8c25 1.9 46.7-4 66.8-19.1-10.3-.8-18.9-3.6-26.5-9.3a46.5 46.5 0 0 1-16.1-22.4h19.1c-24.8-11.9-36.4-26.8-35-45.2l18.8 5.2.6-.8c-19.7-16.7-24.4-36.6-13.5-60.9 25 29.2 56 45.1 94 47.9a21.64 21.64 0 0 0 0-3.6c-2.7-19.4 6.2-37.7 23.1-46.9a45.21 45.21 0 0 1 52.3 6c2.5 2.2 4.6 2.8 7.6 1.8 7.9-2.9 15.7-5.7 23.8-8.6-3.2 9.6-9.7 17-18.1 23l.5 1 23.3-6.3.8.8c-6.2 6.2-12.4 12.8-19.1 18.9z"/></symbol><symbol id="icon-paw" viewBox="0 0 720 720"><ellipse cx="239.9" cy="328.02" rx="39.36" ry="46.16" transform="rotate(-45 239.9 328.02)"/><ellipse cx="304.94" cy="240.31" rx="46.16" ry="59.28" transform="rotate(-20.08 304.988 240.318)"/><ellipse cx="415.06" cy="240.3" rx="59.28" ry="46.16" transform="rotate(-77.04 415.088 240.297)"/><ellipse cx="480.1" cy="328.01" rx="46.16" ry="39.36" transform="rotate(-45 480.12 328.018)"/><path d="M311.4 345.14l-63.08 109.12c-21.64 37.4 5.41 84.14 48.57 84.14h126c43.16 0 70.21-46.74 48.57-84.14l-63.03-109.12c-21.41-37.41-75.4-37.41-97 0z"/></symbol><symbol id="icon-man" viewBox="0 0 720 720"><defs><style>.cls-1,.cls-2{fill:#fff;stroke:#000;stroke-miterlimit:10;stroke-width:30px}.cls-2{fill:none}</style></defs><path d="M217.4 434.2h285.3v220.2H217.4z"/><circle cx="360" cy="432.7" r="142.8"/><circle cx="360" cy="252.8" r="131.8" class="cls-1"/><circle cx="310.5" cy="218.6" r="30"/><circle cx="409.5" cy="220.1" r="30"/><path d="M401.2 264a41.2 41.2 0 0 1-82.4 0" class="cls-2"/></symbol></svg>