<?xml version="1.0" encoding="utf-8"?>
<!-- Generator: Adobe Illustrator 22.0.1, SVG Export Plug-In . SVG Version: 6.00 Build 0)  -->
<svg version="1.1" id="Layer_1" xmlns="http://www.w3.org/2000/svg" xmlns:xlink="http://www.w3.org/1999/xlink" x="0px" y="0px"
	 viewBox="0 0 256 256" style="enable-background:new 0 0 256 256;" xml:space="preserve">
<style type="text/css">
	.st0{fill:url(#SVGID_1_);}
	.st1{fill:none;stroke:url(#SVGID_2_);stroke-width:10;stroke-miterlimit:10;}
	.st2{fill:none;stroke:url(#SVGID_3_);stroke-width:10;stroke-miterlimit:10;}
	.st3{fill:none;stroke:url(#SVGID_4_);stroke-width:10;stroke-miterlimit:10;}
	.st4{fill:none;stroke:url(#SVGID_5_);stroke-width:10;stroke-miterlimit:10;}
	.st5{fill:none;stroke:url(#SVGID_6_);stroke-width:10;stroke-miterlimit:10;}
	.st6{fill:none;stroke:url(#SVGID_7_);stroke-width:10;stroke-miterlimit:10;}
	.st7{fill:none;stroke:url(#SVGID_8_);stroke-width:10;stroke-miterlimit:10;}
	.st8{fill:none;stroke:url(#SVGID_9_);stroke-width:10;stroke-miterlimit:10;}
</style>
<linearGradient id="SVGID_1_" gradientUnits="userSpaceOnUse" x1="70.7379" y1="106.7781" x2="70.7379" y2="176.3705" gradientTransform="matrix(0.7071 -0.7071 0.7071 0.7071 -28.8011 86.3503)">
	<stop  offset="0" style="stop-color:#93CC84"/>
	<stop  offset="1" style="stop-color:#00A79D"/>
</linearGradient>
<path class="st0" d="M115,17.6l-5.6-5.6l-10,10c-1.6,1.6-3.6,3.6-6.2,6.1L36.8,84.5l0,0l-18.1,18.1l-0.3,2.7
	c-3,24.4,2.7,43.4,17.5,58.2c10.9,10.9,24.8,13.1,40.6,10.8c-0.4,17.5,4.3,34,18.3,48c19.3,19.3,49.4,10.6,76.1,0.9l1.7-0.6l1.3-1.3
	l66.9-66.9l5.6-5.6l-5.6-5.6c-32.5-32.5-78.5-14.9-119.1,0.6c-8.9,3.4-17.7,6.8-26.1,9.5c3.4-14.3,9.1-29.4,14.8-44.3
	C123.8,73.1,136.7,39.3,115,17.6z M33.9,109.9l74.3-74.3c2.1,4.9,2.6,10.7,2,17.2l-75.7,75.7C33.5,122.9,33.3,116.8,33.9,109.9z
	 M78.1,157.7c-3.3,0.6-6.5,1-9.5,1.2c3.6-3.6,7.7-7.7,11.9-11.9C79.6,150.6,78.8,154.2,78.1,157.7z M189.5,141.1l-75.2,75.2
	c-3.1-1.1-5.9-2.8-8.3-5.3c-0.8-0.8-1.6-1.7-2.4-2.6l63.5-63.5C174.8,142.9,182.3,141.5,189.5,141.1z M163.6,208.8
	c-10.2,3.7-19.3,6.5-27.2,8l73.7-73.7c4.6,1.3,9,3.4,13,6.2L163.6,208.8z M127.1,158.6c2-0.8,3.9-1.5,5.9-2.2l-37.8,37.8
	c-1.9-5.4-2.8-11.2-2.9-17.2l9-9C109.8,165.3,118.4,162,127.1,158.6z M91.3,113.7l-41,41c-1.1-0.7-2.1-1.6-3.1-2.6
	c-2.4-2.4-4.4-4.9-6.1-7.5L102.7,83c-2.3,6.6-4.9,13.4-7.5,20.2C93.9,106.6,92.6,110.2,91.3,113.7z"/>
<linearGradient id="SVGID_2_" gradientUnits="userSpaceOnUse" x1="305.3333" y1="89.4622" x2="405" y2="89.4622">
	<stop  offset="0" style="stop-color:#93CC84"/>
	<stop  offset="1" style="stop-color:#1F333A"/>
</linearGradient>
<path class="st1" d="M400,145.1c0-47.3-89.7-47-89.7-81.7c0-12.8,6.5-22.1,16.1-29.6l73.6,0c0,34.7-89.7,34.3-89.7,81.7
	c0,13.6,13.7,21.8,30.4,29.6C340.7,145.1,400,145.1,400,145.1z"/>
<linearGradient id="SVGID_3_" gradientUnits="userSpaceOnUse" x1="340.743" y1="145.0757" x2="400" y2="145.0757">
	<stop  offset="0" style="stop-color:#93CC84"/>
	<stop  offset="1" style="stop-color:#1F333A"/>
</linearGradient>
<line class="st2" x1="340.7" y1="145.1" x2="400" y2="145.1"/>
<linearGradient id="SVGID_4_" gradientUnits="userSpaceOnUse" x1="314.4129" y1="126.5378" x2="394.4292" y2="126.5378">
	<stop  offset="0" style="stop-color:#93CC84"/>
	<stop  offset="1" style="stop-color:#1F333A"/>
</linearGradient>
<line class="st3" x1="314.4" y1="126.5" x2="394.4" y2="126.5"/>
<linearGradient id="SVGID_5_" gradientUnits="userSpaceOnUse" x1="311.7911" y1="108.3334" x2="372.3877" y2="108.3334">
	<stop  offset="0" style="stop-color:#93CC84"/>
	<stop  offset="1" style="stop-color:#1F333A"/>
</linearGradient>
<line class="st4" x1="311.8" y1="108.3" x2="372.4" y2="108.3"/>
<linearGradient id="SVGID_6_" gradientUnits="userSpaceOnUse" x1="322.3406" y1="89.4622" x2="333.2501" y2="89.4622">
	<stop  offset="0" style="stop-color:#93CC84"/>
	<stop  offset="1" style="stop-color:#1F333A"/>
</linearGradient>
<line class="st5" x1="322.3" y1="89.5" x2="333.2" y2="89.5"/>
<linearGradient id="SVGID_7_" gradientUnits="userSpaceOnUse" x1="311.7911" y1="70.9243" x2="353.0053" y2="70.9243">
	<stop  offset="0" style="stop-color:#93CC84"/>
	<stop  offset="1" style="stop-color:#1F333A"/>
</linearGradient>
<line class="st6" x1="311.8" y1="70.9" x2="353" y2="70.9"/>
<linearGradient id="SVGID_8_" gradientUnits="userSpaceOnUse" x1="311.7911" y1="52.3865" x2="389.0808" y2="52.3865">
	<stop  offset="0" style="stop-color:#93CC84"/>
	<stop  offset="1" style="stop-color:#1F333A"/>
</linearGradient>
<line class="st7" x1="311.8" y1="52.4" x2="389.1" y2="52.4"/>
<linearGradient id="SVGID_9_" gradientUnits="userSpaceOnUse" x1="340.743" y1="33.8487" x2="400" y2="33.8487">
	<stop  offset="0" style="stop-color:#93CC84"/>
	<stop  offset="1" style="stop-color:#1F333A"/>
</linearGradient>
<line class="st8" x1="340.7" y1="33.8" x2="400" y2="33.8"/>
</svg>
