<svg xmlns="http://www.w3.org/2000/svg" id="Layer_1" viewBox="0 0 256 256" width="256" height="256"><style>.st0{fill:url(#SVGID_1_)}.st1{stroke:url(#SVGID_2_)}.st1,.st2,.st3,.st4,.st5,.st6,.st7,.st8{fill:none;stroke-width:10;stroke-miterlimit:10}.st2{stroke:url(#SVGID_3_)}.st3{stroke:url(#SVGID_4_)}.st4{stroke:url(#SVGID_5_)}.st5{stroke:url(#SVGID_6_)}.st6{stroke:url(#SVGID_7_)}.st7{stroke:url(#SVGID_8_)}.st8{stroke:url(#SVGID_9_)}</style><linearGradient id="SVGID_1_" x1="70.74" x2="70.74" y1="106.78" y2="176.37" gradientTransform="rotate(-45.001 89.833 77.943)" gradientUnits="userSpaceOnUse"><stop offset="0" stop-color="#93cc84"/><stop offset="1" stop-color="#00a79d"/></linearGradient><path d="M115 17.6l-5.6-5.6-10 10c-1.6 1.6-3.6 3.6-6.2 6.1L36.8 84.5l-18.1 18.1-.3 2.7c-3 24.4 2.7 43.4 17.5 58.2 10.9 10.9 24.8 13.1 40.6 10.8-.4 17.5 4.3 34 18.3 48 19.3 19.3 49.4 10.6 76.1.9l1.7-.6 1.3-1.3 66.9-66.9 5.6-5.6-5.6-5.6c-32.5-32.5-78.5-14.9-119.1.6-8.9 3.4-17.7 6.8-26.1 9.5 3.4-14.3 9.1-29.4 14.8-44.3 13.4-35.9 26.3-69.7 4.6-91.4zm-81.1 92.3l74.3-74.3c2.1 4.9 2.6 10.7 2 17.2l-75.7 75.7c-1-5.6-1.2-11.7-.6-18.6zm44.2 47.8c-3.3.6-6.5 1-9.5 1.2L80.5 147c-.9 3.6-1.7 7.2-2.4 10.7zm111.4-16.6l-75.2 75.2c-3.1-1.1-5.9-2.8-8.3-5.3-.8-.8-1.6-1.7-2.4-2.6l63.5-63.5c7.7-2 15.2-3.4 22.4-3.8zm-25.9 67.7c-10.2 3.7-19.3 6.5-27.2 8l73.7-73.7c4.6 1.3 9 3.4 13 6.2l-59.5 59.5zm-36.5-50.2c2-.8 3.9-1.5 5.9-2.2l-37.8 37.8c-1.9-5.4-2.8-11.2-2.9-17.2l9-9c8.5-2.7 17.1-6 25.8-9.4zm-35.8-44.9l-41 41c-1.1-.7-2.1-1.6-3.1-2.6-2.4-2.4-4.4-4.9-6.1-7.5L102.7 83c-2.3 6.6-4.9 13.4-7.5 20.2-1.3 3.4-2.6 7-3.9 10.5z" class="st0"/><linearGradient id="SVGID_2_" x1="305.33" x2="405" y1="89.46" y2="89.46" gradientUnits="userSpaceOnUse"><stop offset="0" stop-color="#93cc84"/><stop offset="1" stop-color="#1f333a"/></linearGradient><path d="M400 145.1c0-47.3-89.7-47-89.7-81.7 0-12.8 6.5-22.1 16.1-29.6H400c0 34.7-89.7 34.3-89.7 81.7 0 13.6 13.7 21.8 30.4 29.6H400z" class="st1"/><linearGradient id="SVGID_3_" x1="340.74" x2="400" y1="145.08" y2="145.08" gradientUnits="userSpaceOnUse"><stop offset="0" stop-color="#93cc84"/><stop offset="1" stop-color="#1f333a"/></linearGradient><path d="M340.7 145.1H400" class="st2"/><linearGradient id="SVGID_4_" x1="314.41" x2="394.43" y1="126.54" y2="126.54" gradientUnits="userSpaceOnUse"><stop offset="0" stop-color="#93cc84"/><stop offset="1" stop-color="#1f333a"/></linearGradient><path d="M314.4 126.5h80" class="st3"/><linearGradient id="SVGID_5_" x1="311.79" x2="372.39" y1="108.33" y2="108.33" gradientUnits="userSpaceOnUse"><stop offset="0" stop-color="#93cc84"/><stop offset="1" stop-color="#1f333a"/></linearGradient><path d="M311.8 108.3h60.6" class="st4"/><linearGradient id="SVGID_6_" x1="322.34" x2="333.25" y1="89.46" y2="89.46" gradientUnits="userSpaceOnUse"><stop offset="0" stop-color="#93cc84"/><stop offset="1" stop-color="#1f333a"/></linearGradient><path d="M322.3 89.5h10.9" class="st5"/><linearGradient id="SVGID_7_" x1="311.79" x2="353.01" y1="70.92" y2="70.92" gradientUnits="userSpaceOnUse"><stop offset="0" stop-color="#93cc84"/><stop offset="1" stop-color="#1f333a"/></linearGradient><path d="M311.8 70.9H353" class="st6"/><linearGradient id="SVGID_8_" x1="311.79" x2="389.08" y1="52.39" y2="52.39" gradientUnits="userSpaceOnUse"><stop offset="0" stop-color="#93cc84"/><stop offset="1" stop-color="#1f333a"/></linearGradient><path d="M311.8 52.4h77.3" class="st7"/><linearGradient id="SVGID_9_" x1="340.74" x2="400" y1="33.85" y2="33.85" gradientUnits="userSpaceOnUse"><stop offset="0" stop-color="#93cc84"/><stop offset="1" stop-color="#1f333a"/></linearGradient><path d="M340.7 33.8H400" class="st8"/></svg>